<!DOCTYPE svg PUBLIC "-//W3C//DTD SVG 1.1//EN" "http://www.w3.org/Graphics/SVG/1.1/DTD/svg11.dtd">

<!-- Uploaded to: SVG Repo, www.svgrepo.com, Transformed by: SVG Repo Mixer Tools -->
<svg height="256px" width="256px" version="1.1" id="Capa_1" xmlns="http://www.w3.org/2000/svg" xmlns:xlink="http://www.w3.org/1999/xlink" viewBox="0 0 369.79 369.79" xml:space="preserve" fill="#ffff">

<g id="SVGRepo_bgCarrier" stroke-width="0"/>

<g id="SVGRepo_tracerCarrier" stroke-linecap="round" stroke-linejoin="round" stroke="#ffff" stroke-width="2.218728"/>

<g id="SVGRepo_iconCarrier"> <g> <path style="fill:#ffff;" d="M95.773,203.37h94.129c4.143,0,7.5-3.357,7.5-7.5s-3.357-7.5-7.5-7.5H95.773 c-12.828,0-23.265-10.437-23.265-23.265V98.796c0-12.828,10.437-23.265,23.265-23.265h178.242 c12.828,0,23.265,10.437,23.265,23.265v66.309c0,12.828-10.437,23.265-23.265,23.265c-4.143,0-7.5,3.357-7.5,7.5s3.357,7.5,7.5,7.5 c21.1,0,38.265-17.165,38.265-38.265V98.796c0-21.1-17.165-38.265-38.265-38.265H95.773c-21.1,0-38.265,17.165-38.265,38.265 v66.309C57.509,186.205,74.674,203.37,95.773,203.37z"/> <path style="fill:#ffff;" d="M183.406,92.322c-3.655-1.944-8.198-0.559-10.145,3.098l-28.512,53.575l-28.513-53.575 c-1.946-3.657-6.49-5.043-10.145-3.098c-3.656,1.946-5.043,6.488-3.098,10.145l35.134,66.016c1.303,2.447,3.849,3.977,6.621,3.977 s5.318-1.529,6.621-3.977l35.133-66.016C188.449,98.81,187.063,94.268,183.406,92.322z"/> <path style="fill:#ffff;" d="M186.383,171.58c1.122,0.597,2.328,0.881,3.517,0.881c2.684-0.001,5.279-1.444,6.628-3.979 l10.306-19.365h36.413l10.306,19.365c1.945,3.656,6.487,5.04,10.145,3.098c3.656-1.946,5.043-6.488,3.098-10.145l-12.438-23.372 c-0.007-0.012-0.013-0.024-0.02-0.036L231.66,95.419c-1.303-2.447-3.849-3.977-6.621-3.977s-5.318,1.529-6.621,3.977 l-22.678,42.612c-0.004,0.008-0.009,0.016-0.013,0.024l-12.442,23.379C181.34,165.091,182.727,169.633,186.383,171.58z M225.039,114.907l10.224,19.21h-20.447L225.039,114.907z"/> <path style="fill:#ffff;" d="M366.499,260.624l-51.473-34.927c-2.298-1.56-5.27-1.723-7.723-0.421 c-2.454,1.301-3.988,3.85-3.988,6.627v27.427H66.474v-27.427c0-2.777-1.534-5.326-3.988-6.627s-5.426-1.139-7.723,0.421 L3.289,260.624C1.231,262.019,0,264.343,0,266.83s1.231,4.811,3.289,6.206l51.474,34.926c1.266,0.859,2.736,1.294,4.212,1.294 c1.202,0,2.409-0.289,3.511-0.873c2.454-1.301,3.988-3.85,3.988-6.627V274.33h236.842v27.427c0,2.777,1.534,5.326,3.988,6.627 c1.102,0.584,2.309,0.873,3.511,0.873c1.476,0,2.946-0.435,4.212-1.294l51.473-34.927c2.058-1.396,3.289-3.72,3.289-6.206 S368.557,262.019,366.499,260.624z M51.474,287.603L20.857,266.83l30.616-20.774V287.603z M318.315,287.604v-41.549l30.615,20.774 L318.315,287.604z"/> </g> </g>

</svg>
